<svg width="254" height="35" viewBox="0 0 254 35" fill="none" xmlns="http://www.w3.org/2000/svg">
<path d="M4.67886 5.044L3.51086 3.892L4.67886 2.74L5.84686 3.892L4.67886 5.044ZM7.22286 5.044L6.03886 3.892L7.22286 2.74L8.39086 3.892L7.22286 5.044ZM5.95886 14.356C4.88153 14.356 3.99619 13.988 3.30286 13.252C2.62019 12.516 2.27886 11.604 2.27886 10.516C2.27886 9.40667 2.62553 8.46267 3.31886 7.684C4.01219 6.90533 4.89219 6.516 5.95886 6.516C7.01486 6.516 7.88419 6.91067 8.56686 7.7C9.26019 8.47867 9.60686 9.41733 9.60686 10.516C9.60686 11.604 9.26019 12.516 8.56686 13.252C7.88419 13.988 7.01486 14.356 5.95886 14.356ZM5.95886 12.9C6.63086 12.9 7.18019 12.6707 7.60686 12.212C8.04419 11.7533 8.26286 11.1827 8.26286 10.5C8.26286 9.796 8.04419 9.19867 7.60686 8.708C7.16953 8.20667 6.62019 7.956 5.95886 7.956C5.28686 7.956 4.72686 8.20667 4.27886 8.708C3.84153 9.19867 3.62286 9.796 3.62286 10.5C3.62286 11.1827 3.84153 11.7533 4.27886 12.212C4.71619 12.6707 5.27619 12.9 5.95886 12.9Z" fill="white"/>
<path d="M10.5735 14.212L10.3015 12.772H14.3335C14.9842 12.772 15.4802 12.612 15.8215 12.292C16.1735 11.972 16.3495 11.5187 16.3495 10.932L16.3335 10.004C16.3228 9.35333 16.0882 8.82533 15.6295 8.42C15.1815 8.01467 14.6055 7.812 13.9015 7.812H12.9575V6.404H14.1895C15.2135 6.404 16.0508 6.71867 16.7015 7.348C17.3522 7.97733 17.6828 8.804 17.6935 9.828L17.7095 11.14C17.6988 12.1213 17.4055 12.8787 16.8295 13.412C16.2642 13.9453 15.4268 14.212 14.3175 14.212H10.5735Z" fill="white"/>
<path d="M23.1435 14.212C20.9035 14.212 19.7835 13.1453 19.7835 11.012L19.7675 2.74L21.1275 2.532V10.692C21.1275 12.0787 21.7942 12.772 23.1275 12.772C23.2342 12.772 23.2875 12.82 23.2875 12.916L23.3035 14.052C23.3035 14.1587 23.2502 14.212 23.1435 14.212Z" fill="white"/>
<path d="M23.1415 14.212C23.0348 14.212 22.9815 14.1587 22.9815 14.052L22.9975 12.916C22.9975 12.82 23.0508 12.772 23.1575 12.772C24.5015 12.772 25.1735 12.1053 25.1735 10.772L25.1575 6.484L26.5175 6.26V11.14C26.5175 12.1213 26.2295 12.8787 25.6535 13.412C25.0882 13.9453 24.2508 14.212 23.1415 14.212ZM24.8855 17.796L23.7015 16.644L24.8535 15.476L26.0535 16.644L24.8855 17.796Z" fill="white"/>
<path d="M35.4346 2.74L36.7946 2.532V11.012C36.7946 13.1453 35.6693 14.212 33.4186 14.212H28.1226L27.8666 12.772H31.6586L30.0586 4.964L31.4026 4.628L32.9386 12.772H33.4186C34.7626 12.772 35.4346 12.0787 35.4346 10.692V2.74ZM31.9626 16.612C31.9626 16.9213 32.0533 17.172 32.2346 17.364H34.2986L34.0906 18.276H30.4746V17.364H31.3546C31.1839 17.0867 31.0986 16.7827 31.0986 16.452C31.0986 16.0467 31.2319 15.7107 31.4986 15.444C31.7759 15.188 32.1226 15.06 32.5386 15.06C32.8693 15.06 33.2853 15.1613 33.7866 15.364V16.148C33.3706 15.988 33.0293 15.908 32.7626 15.908C32.5279 15.908 32.3359 15.972 32.1866 16.1C32.0373 16.228 31.9626 16.3987 31.9626 16.612Z" fill="white"/>
<path d="M39.5647 14.212V2.74L40.9247 2.532V14.212H39.5647Z" fill="white"/>
<path d="M56.959 6.484L58.319 6.26V11.14C58.319 12.1213 58.031 12.8787 57.455 13.412C56.8897 13.9453 56.0523 14.212 54.943 14.212H50.671C49.4017 14.212 48.431 13.9187 47.759 13.332C47.0976 12.7453 46.767 11.8813 46.767 10.74C46.767 9.96133 46.879 9.04933 47.103 8.004L48.303 8.164C48.1323 9.11333 48.047 9.844 48.047 10.356C48.047 11.9667 49.0283 12.772 50.991 12.772H54.943C56.287 12.772 56.959 12.1053 56.959 10.772V6.484ZM51.759 16.612L52.911 15.444L54.111 16.612L52.943 17.764L51.759 16.612Z" fill="white"/>
<path d="M64.9279 12.772C65.0345 12.772 65.0879 12.82 65.0879 12.916V14.052C65.0879 14.1587 65.0345 14.212 64.9279 14.212C64.1065 14.212 63.5039 13.9293 63.1199 13.364V13.78C63.1199 15.1133 62.7785 16.0893 62.0959 16.708C61.4132 17.3373 60.3892 17.652 59.0239 17.652L58.8959 16.484C60.8159 16.484 61.7759 15.5667 61.7759 13.732L61.7599 6.484L63.1199 6.26V11.252C63.1945 12.2653 63.7972 12.772 64.9279 12.772Z" fill="white"/>
<path d="M67.7544 6.66C68.4477 6.66 69.1784 6.88933 69.9464 7.348C70.725 7.80667 72.0264 8.79333 73.8504 10.308L73.6424 11.636C71.9784 12.5213 70.4637 13.172 69.0984 13.588C67.7437 14.004 66.3624 14.212 64.9544 14.212C64.837 14.212 64.7784 14.1587 64.7784 14.052V12.916C64.7784 12.82 64.837 12.772 64.9544 12.772C67.4184 12.772 69.9197 12.1533 72.4584 10.916C71.0824 9.764 70.0637 9.00133 69.4024 8.628C68.7517 8.25467 68.133 8.068 67.5464 8.068C67.301 8.068 66.7784 8.15333 65.9784 8.324L65.7064 7.108C66.4957 6.80933 67.1784 6.66 67.7544 6.66Z" fill="white"/>
<path d="M84.8127 6.516C85.8687 6.516 86.7434 6.91067 87.4367 7.7C88.1301 8.47867 88.4767 9.41733 88.4767 10.516C88.4767 11.604 88.1301 12.516 87.4367 13.252C86.7541 13.988 85.8794 14.356 84.8127 14.356C83.9167 14.356 83.1487 14.0893 82.5087 13.556C81.8687 13.0227 81.4527 12.3293 81.2607 11.476C80.4927 11.636 80.1087 12.2067 80.1087 13.188V18.324L78.7647 18.532L78.7487 13.012C78.7487 11.2307 79.5594 10.2387 81.1807 10.036C81.2767 9.03333 81.6607 8.196 82.3327 7.524C83.0047 6.852 83.8314 6.516 84.8127 6.516ZM83.1487 12.212C83.5861 12.6707 84.1407 12.9 84.8127 12.9C85.4847 12.9 86.0341 12.6707 86.4607 12.212C86.8981 11.7533 87.1167 11.1827 87.1167 10.5C87.1167 9.796 86.8981 9.19867 86.4607 8.708C86.0341 8.20667 85.4847 7.956 84.8127 7.956C84.1407 7.956 83.5861 8.20667 83.1487 8.708C82.7114 9.19867 82.4927 9.796 82.4927 10.5C82.4927 11.1827 82.7114 11.7533 83.1487 12.212Z" fill="white"/>
<path d="M93.7529 14.212C91.5129 14.212 90.3929 13.1453 90.3929 11.012L90.3769 2.74L91.7369 2.532V10.692C91.7369 12.0787 92.4035 12.772 93.7369 12.772C93.8435 12.772 93.8969 12.82 93.8969 12.916L93.9129 14.052C93.9129 14.1587 93.8595 14.212 93.7529 14.212Z" fill="white"/>
<path d="M96.6949 5.668L95.5269 6.82L94.3589 5.668L95.5269 4.516L96.6949 5.668ZM99.2389 5.668L98.0709 6.82L96.8869 5.668L98.0709 4.516L99.2389 5.668ZM99.7669 12.772C99.8735 12.772 99.9269 12.82 99.9269 12.916V14.052C99.9269 14.1587 99.8735 14.212 99.7669 14.212C98.7749 14.212 97.8575 13.8227 97.0149 13.044C96.4389 13.8227 95.3509 14.212 93.7509 14.212C93.6442 14.212 93.5909 14.1587 93.5909 14.052L93.6069 12.916C93.6069 12.82 93.6602 12.772 93.7669 12.772C94.6202 12.772 95.2389 12.6173 95.6229 12.308C96.0175 11.988 96.2149 11.476 96.2149 10.772V8.18L97.5589 7.972V11.14C97.5589 11.4067 97.5322 11.684 97.4789 11.972C98.1935 12.5053 98.9562 12.772 99.7669 12.772Z" fill="white"/>
<path d="M99.7669 14.212C99.6602 14.212 99.6065 14.1587 99.6065 14.052L99.6225 12.916C99.6225 12.82 99.6758 12.772 99.7825 12.772H100.998C102.332 12.772 102.998 12.1053 102.998 10.772V6.484L104.342 6.26V11.14C104.342 12.1213 104.06 12.8787 103.494 13.412C102.929 13.9453 102.092 14.212 100.982 14.212H99.7669ZM100.79 17.78L99.6225 16.628L100.79 15.476L101.958 16.628L100.79 17.78ZM103.334 17.78L102.15 16.628L103.334 15.476L104.502 16.628L103.334 17.78Z" fill="white"/>
<path d="M107.391 2.804H109.471L109.247 3.716H105.631V2.804H106.511C106.34 2.52667 106.255 2.21733 106.255 1.876C106.255 1.48133 106.388 1.156 106.655 0.900001C106.932 0.633334 107.279 0.5 107.695 0.5C108.068 0.5 108.484 0.601333 108.943 0.804V1.588C108.57 1.428 108.228 1.348 107.919 1.348C107.684 1.348 107.492 1.412 107.343 1.54C107.194 1.668 107.119 1.83867 107.119 2.052C107.119 2.36133 107.21 2.612 107.391 2.804ZM106.847 14.212V4.772L108.207 4.564V14.212H106.847Z" fill="white"/>
<path d="M117.504 3.844L116.336 4.996L115.168 3.844L116.336 2.692L117.504 3.844ZM120.048 3.844L118.88 4.996L117.696 3.844L118.88 2.692L120.048 3.844ZM122.688 12.772C122.795 12.772 122.848 12.82 122.848 12.916V14.052C122.848 14.1587 122.795 14.212 122.688 14.212C121.707 14.212 120.982 13.9827 120.512 13.524C119.435 14.0787 118.47 14.356 117.616 14.356C116.539 14.356 115.654 13.988 114.96 13.252C114.278 12.516 113.936 11.604 113.936 10.516C113.936 9.40667 114.283 8.46267 114.976 7.684C115.67 6.90533 116.55 6.516 117.616 6.516C118.267 6.516 118.982 6.66533 119.76 6.964V5.972L121.104 5.748L121.12 10.98C121.12 11.62 121.243 12.0787 121.488 12.356C121.734 12.6333 122.134 12.772 122.688 12.772ZM117.616 12.98C118.331 12.9907 119.099 12.8093 119.92 12.436C119.814 12.0733 119.76 11.6307 119.76 11.108V8.324C118.896 8.036 118.198 7.892 117.664 7.892C116.95 7.892 116.363 8.14267 115.904 8.644C115.456 9.14533 115.232 9.764 115.232 10.5C115.232 11.204 115.451 11.7907 115.888 12.26C116.336 12.7293 116.912 12.9693 117.616 12.98Z" fill="white"/>
<path d="M122.688 14.212C122.582 14.212 122.528 14.1587 122.528 14.052V12.916C122.528 12.82 122.587 12.772 122.704 12.772C124.038 12.772 124.704 12.0787 124.704 10.692L124.72 2.74L126.064 2.532V11.012C126.064 13.1453 124.939 14.212 122.688 14.212Z" fill="white"/>
<path d="M132.19 14.212C129.95 14.212 128.83 13.1453 128.83 11.012L128.814 2.74L130.174 2.532V10.692C130.174 12.0787 130.841 12.772 132.174 12.772C132.281 12.772 132.334 12.82 132.334 12.916L132.35 14.052C132.35 14.1587 132.297 14.212 132.19 14.212Z" fill="white"/>
<path d="M137.836 3.94L136.668 5.108L135.484 3.94L136.636 2.788L137.836 3.94ZM141.196 12.772C141.303 12.772 141.356 12.82 141.356 12.916V14.052C141.356 14.1587 141.303 14.212 141.196 14.212C139.618 14.212 138.151 14.0147 136.796 13.62C135.58 14.0147 134.044 14.212 132.188 14.212C132.082 14.2013 132.028 14.148 132.028 14.052V12.916C132.028 12.82 132.082 12.772 132.188 12.772C133.116 12.772 133.948 12.74 134.684 12.676C133.703 11.94 133.212 10.996 133.212 9.844C133.212 8.87333 133.548 8.068 134.22 7.428C134.892 6.77733 135.73 6.452 136.732 6.452C137.756 6.452 138.599 6.78267 139.26 7.444C139.922 8.09467 140.252 8.89467 140.252 9.844C140.252 10.9853 139.762 11.9187 138.78 12.644C139.41 12.7293 140.215 12.772 141.196 12.772ZM136.684 7.796C136.055 7.796 135.538 8.004 135.132 8.42C134.738 8.82533 134.54 9.348 134.54 9.988C134.54 10.5533 134.738 11.0653 135.132 11.524C135.527 11.9827 136.055 12.308 136.716 12.5C137.399 12.276 137.938 11.94 138.332 11.492C138.738 11.044 138.94 10.5427 138.94 9.988C138.94 9.348 138.722 8.82533 138.284 8.42C137.858 8.004 137.324 7.796 136.684 7.796Z" fill="white"/>
<path d="M146.036 7.444C147.209 7.444 148.143 7.748 148.836 8.356C149.54 8.95333 149.892 9.764 149.892 10.788C149.892 11.844 149.561 12.6813 148.9 13.3C148.249 13.908 147.375 14.212 146.276 14.212H141.204C141.097 14.212 141.044 14.1587 141.044 14.052V12.916C141.044 12.82 141.097 12.772 141.204 12.772H146.164C146.9 12.772 147.476 12.596 147.892 12.244C148.319 11.892 148.532 11.4013 148.532 10.772C148.532 10.1427 148.319 9.64667 147.892 9.284C147.476 8.91067 146.905 8.724 146.18 8.724H142.324L141.588 7.428L146.372 1.764L147.684 2.452L143.188 7.444H146.036Z" fill="white"/>
<path d="M158.504 3.844L157.336 4.996L156.168 3.844L157.336 2.692L158.504 3.844ZM161.048 3.844L159.88 4.996L158.696 3.844L159.88 2.692L161.048 3.844ZM163.688 12.772C163.795 12.772 163.848 12.82 163.848 12.916V14.052C163.848 14.1587 163.795 14.212 163.688 14.212C162.707 14.212 161.982 13.9827 161.512 13.524C160.435 14.0787 159.47 14.356 158.616 14.356C157.539 14.356 156.654 13.988 155.96 13.252C155.278 12.516 154.936 11.604 154.936 10.516C154.936 9.40667 155.283 8.46267 155.976 7.684C156.67 6.90533 157.55 6.516 158.616 6.516C159.267 6.516 159.982 6.66533 160.76 6.964V5.972L162.104 5.748L162.12 10.98C162.12 11.62 162.243 12.0787 162.488 12.356C162.734 12.6333 163.134 12.772 163.688 12.772ZM158.616 12.98C159.331 12.9907 160.099 12.8093 160.92 12.436C160.814 12.0733 160.76 11.6307 160.76 11.108V8.324C159.896 8.036 159.198 7.892 158.664 7.892C157.95 7.892 157.363 8.14267 156.904 8.644C156.456 9.14533 156.232 9.764 156.232 10.5C156.232 11.204 156.451 11.7907 156.888 12.26C157.336 12.7293 157.912 12.9693 158.616 12.98Z" fill="white"/>
<path d="M178.712 12.772C178.819 12.772 178.872 12.82 178.872 12.916V14.052C178.872 14.1587 178.819 14.212 178.712 14.212C177.827 14.212 177 13.8867 176.232 13.236C175.688 13.876 174.851 14.196 173.72 14.196C172.867 14.196 171.976 13.9133 171.048 13.348C170.483 13.9133 169.672 14.196 168.616 14.196C167.848 14.196 167.054 13.9187 166.232 13.364C165.646 13.9293 164.798 14.212 163.688 14.212C163.582 14.212 163.528 14.1587 163.528 14.052V12.916C163.528 12.82 163.582 12.772 163.688 12.772C165.032 12.772 165.704 12.1053 165.704 10.772L165.688 8.18L167.048 7.972V11.14C167.048 11.588 166.984 11.9987 166.856 12.372C167.475 12.628 168.03 12.756 168.52 12.756C169.864 12.756 170.536 12.0893 170.536 10.756L170.52 8.164L171.88 7.956V11.124C171.88 11.5933 171.811 12.004 171.672 12.356C172.334 12.6227 172.952 12.756 173.528 12.756C174.179 12.756 174.675 12.5907 175.016 12.26C175.368 11.9187 175.544 11.4173 175.544 10.756V6.468L176.888 6.244V11.124C176.888 11.476 176.846 11.8227 176.76 12.164C177.379 12.5693 178.03 12.772 178.712 12.772Z" fill="white"/>
<path d="M190.576 6.468L191.92 6.244V11.124C191.92 12.1053 191.653 12.8627 191.12 13.396C190.586 13.9293 189.797 14.196 188.752 14.196C187.898 14.196 187.008 13.9133 186.08 13.348C185.514 13.9133 184.704 14.196 183.648 14.196C182.88 14.196 182.085 13.9187 181.264 13.364C180.677 13.9293 179.829 14.212 178.72 14.212C178.613 14.212 178.56 14.1587 178.56 14.052V12.916C178.56 12.82 178.613 12.772 178.72 12.772C180.064 12.772 180.736 12.1053 180.736 10.772L180.72 8.18L182.08 7.972V11.14C182.08 11.588 182.016 11.9987 181.888 12.372C182.506 12.628 183.061 12.756 183.552 12.756C184.896 12.756 185.568 12.0893 185.568 10.756L185.552 8.164L186.912 7.956V11.124C186.912 11.5933 186.842 12.004 186.704 12.356C187.365 12.6227 187.984 12.756 188.56 12.756C189.21 12.756 189.706 12.5907 190.048 12.26C190.4 11.9187 190.576 11.4173 190.576 10.756V6.468Z" fill="white"/>
<path d="M199.212 4.02L198.892 5.092H195.1V4.02H196.076C195.863 3.68933 195.756 3.364 195.756 3.044C195.756 2.564 195.916 2.18 196.236 1.892C196.556 1.59333 196.967 1.444 197.468 1.444C197.831 1.444 198.242 1.55067 198.7 1.764V2.756C198.263 2.596 197.895 2.516 197.596 2.516C197.319 2.516 197.095 2.58533 196.924 2.724C196.764 2.852 196.684 3.03333 196.684 3.268C196.684 3.53467 196.786 3.78533 196.988 4.02H199.212ZM201.516 12.772C201.623 12.772 201.676 12.82 201.676 12.916V14.052C201.676 14.1587 201.623 14.212 201.516 14.212H200.572C200.38 16.5053 198.396 17.652 194.62 17.652L194.46 16.484C195.943 16.484 197.079 16.3027 197.868 15.94C198.658 15.5773 199.106 15.0013 199.212 14.212H197.292C196.162 14.212 195.255 13.8707 194.572 13.188C193.89 12.4947 193.548 11.5667 193.548 10.404C193.548 9.26267 193.895 8.32933 194.588 7.604C195.292 6.87867 196.178 6.516 197.244 6.516C198.236 6.516 199.042 6.84667 199.66 7.508C200.279 8.15867 200.588 9.02267 200.588 10.1V12.772H201.516ZM194.812 10.34C194.812 11.14 195.052 11.7533 195.532 12.18C196.012 12.6067 196.658 12.82 197.468 12.82C197.81 12.82 198.396 12.8093 199.228 12.788V10.212C199.228 9.51867 199.031 8.964 198.636 8.548C198.252 8.12133 197.746 7.908 197.116 7.908C196.455 7.908 195.906 8.132 195.468 8.58C195.031 9.028 194.812 9.61467 194.812 10.34Z" fill="white"/>
<path d="M205.884 6.452C206.908 6.452 207.767 6.804 208.46 7.508C209.154 8.20133 209.5 9.07067 209.5 10.116C209.5 11.396 209.1 12.3987 208.3 13.124C207.511 13.8493 206.418 14.212 205.02 14.212H201.516C201.41 14.212 201.356 14.1587 201.356 14.052V12.916C201.356 12.82 201.41 12.772 201.516 12.772H202.892C202.412 11.78 202.172 10.916 202.172 10.18C202.172 9.10267 202.519 8.212 203.212 7.508C203.916 6.804 204.807 6.452 205.884 6.452ZM205.132 12.772C206.05 12.772 206.78 12.5427 207.324 12.084C207.868 11.6253 208.14 10.9853 208.14 10.164C208.14 9.48133 207.916 8.92133 207.468 8.484C207.031 8.036 206.476 7.812 205.804 7.812C205.164 7.812 204.62 8.052 204.172 8.532C203.724 9.00133 203.5 9.556 203.5 10.196C203.5 10.964 203.767 11.8227 204.3 12.772H205.132Z" fill="white"/>
<path d="M5.1168 30.142H5.0868C4.96013 30.502 4.72013 30.792 4.3668 31.012C4.02013 31.2253 3.5768 31.332 3.0368 31.332C2.60346 31.332 2.21346 31.2553 1.8668 31.102C1.52013 30.9487 1.22346 30.7187 0.976797 30.412C0.736797 30.1053 0.55013 29.7287 0.416797 29.282C0.283464 28.8353 0.216797 28.3153 0.216797 27.722C0.216797 27.1353 0.283464 26.6187 0.416797 26.172C0.55013 25.7187 0.74013 25.342 0.986797 25.042C1.23346 24.7353 1.53346 24.5053 1.8868 24.352C2.24013 24.192 2.6368 24.112 3.0768 24.112C3.6768 24.112 4.18013 24.2487 4.5868 24.522C4.99346 24.7953 5.30346 25.1553 5.5168 25.602L5.0268 25.892C4.85346 25.5053 4.60013 25.202 4.2668 24.982C3.93346 24.762 3.5368 24.652 3.0768 24.652C2.7368 24.652 2.43013 24.712 2.1568 24.832C1.88346 24.952 1.65013 25.1253 1.4568 25.352C1.26346 25.5787 1.11346 25.8553 1.0068 26.182C0.906797 26.5087 0.856797 26.8787 0.856797 27.292V28.142C0.856797 28.982 1.0568 29.6353 1.4568 30.102C1.86346 30.562 2.42013 30.792 3.1268 30.792C3.39346 30.792 3.64346 30.7587 3.8768 30.692C4.1168 30.6187 4.3268 30.512 4.5068 30.372C4.6868 30.232 4.8268 30.0553 4.9268 29.842C5.03346 29.6287 5.0868 29.3787 5.0868 29.092V28.252H3.4568V27.732H5.6768V31.212H5.1168V30.142Z" fill="white"/>
<path d="M9.68273 31.332C9.34273 31.332 9.03273 31.272 8.75273 31.152C8.4794 31.032 8.24273 30.8587 8.04273 30.632C7.8494 30.3987 7.6994 30.1153 7.59273 29.782C7.49273 29.4487 7.44273 29.072 7.44273 28.652C7.44273 28.232 7.49273 27.8587 7.59273 27.532C7.6994 27.1987 7.8494 26.9187 8.04273 26.692C8.24273 26.4587 8.4794 26.282 8.75273 26.162C9.02607 26.0353 9.33273 25.972 9.67273 25.972C9.9994 25.972 10.2961 26.0353 10.5627 26.162C10.8294 26.282 11.0561 26.452 11.2427 26.672C11.4294 26.892 11.5727 27.1587 11.6727 27.472C11.7794 27.7787 11.8327 28.1187 11.8327 28.492V28.762H8.04273V29.012C8.04273 29.2787 8.0794 29.5253 8.15273 29.752C8.23273 29.972 8.34273 30.162 8.48273 30.322C8.6294 30.482 8.80607 30.6087 9.01273 30.702C9.2194 30.7887 9.45273 30.832 9.71273 30.832C10.4594 30.832 10.9761 30.4887 11.2627 29.802L11.6827 30.082C11.5227 30.462 11.2694 30.7653 10.9227 30.992C10.5827 31.2187 10.1694 31.332 9.68273 31.332ZM9.67273 26.452C9.42607 26.452 9.20273 26.4987 9.00273 26.592C8.80273 26.6787 8.6294 26.802 8.48273 26.962C8.34273 27.122 8.23273 27.3153 8.15273 27.542C8.0794 27.762 8.04273 28.0053 8.04273 28.272V28.322H11.2127V28.242C11.2127 27.9753 11.1761 27.732 11.1027 27.512C11.0294 27.2853 10.9227 27.0953 10.7827 26.942C10.6494 26.7887 10.4861 26.6687 10.2927 26.582C10.1061 26.4953 9.8994 26.452 9.67273 26.452Z" fill="white"/>
<path d="M13.7824 31.212V26.092H14.3524V26.902H14.3824C14.4958 26.6353 14.6724 26.4153 14.9124 26.242C15.1524 26.062 15.4791 25.972 15.8924 25.972C16.4391 25.972 16.8624 26.142 17.1624 26.482C17.4691 26.8153 17.6224 27.2953 17.6224 27.922V31.212H17.0524V28.022C17.0524 27.502 16.9391 27.1153 16.7124 26.862C16.4924 26.6087 16.1691 26.482 15.7424 26.482C15.5624 26.482 15.3891 26.5053 15.2224 26.552C15.0558 26.5987 14.9058 26.6687 14.7724 26.762C14.6458 26.8553 14.5424 26.9753 14.4624 27.122C14.3891 27.262 14.3524 27.4253 14.3524 27.612V31.212H13.7824Z" fill="white"/>
<path d="M21.7372 31.332C21.3972 31.332 21.0905 31.272 20.8172 31.152C20.5439 31.032 20.3105 30.8587 20.1172 30.632C19.9239 30.3987 19.7739 30.1153 19.6672 29.782C19.5605 29.4487 19.5072 29.072 19.5072 28.652C19.5072 28.232 19.5605 27.8587 19.6672 27.532C19.7739 27.1987 19.9239 26.9187 20.1172 26.692C20.3105 26.4587 20.5439 26.282 20.8172 26.162C21.0905 26.0353 21.3972 25.972 21.7372 25.972C22.0772 25.972 22.3839 26.0353 22.6572 26.162C22.9305 26.282 23.1639 26.4587 23.3572 26.692C23.5505 26.9187 23.7005 27.1987 23.8072 27.532C23.9139 27.8587 23.9672 28.232 23.9672 28.652C23.9672 29.072 23.9139 29.4487 23.8072 29.782C23.7005 30.1153 23.5505 30.3987 23.3572 30.632C23.1639 30.8587 22.9305 31.032 22.6572 31.152C22.3839 31.272 22.0772 31.332 21.7372 31.332ZM21.7372 30.822C22.2372 30.822 22.6305 30.6653 22.9172 30.352C23.2105 30.0387 23.3572 29.5787 23.3572 28.972V28.332C23.3572 27.732 23.2105 27.2753 22.9172 26.962C22.6305 26.642 22.2372 26.482 21.7372 26.482C21.2372 26.482 20.8405 26.6387 20.5472 26.952C20.2605 27.2653 20.1172 27.7253 20.1172 28.332V28.972C20.1172 29.572 20.2605 30.032 20.5472 30.352C20.8405 30.6653 21.2372 30.822 21.7372 30.822Z" fill="white"/>
<path d="M27.7152 31.332C27.0086 31.332 26.4619 31.0987 26.0752 30.632C25.6952 30.1653 25.5052 29.5053 25.5052 28.652C25.5052 27.7987 25.6952 27.1387 26.0752 26.672C26.4619 26.2053 27.0086 25.972 27.7152 25.972C28.1886 25.972 28.5719 26.0753 28.8652 26.282C29.1586 26.4887 29.3819 26.762 29.5352 27.102L29.0552 27.342C28.9352 27.062 28.7652 26.8487 28.5452 26.702C28.3319 26.5553 28.0552 26.482 27.7152 26.482C27.1952 26.482 26.7986 26.6487 26.5252 26.982C26.2519 27.3153 26.1152 27.752 26.1152 28.292V29.012C26.1152 29.552 26.2519 29.9887 26.5252 30.322C26.7986 30.6553 27.1952 30.822 27.7152 30.822C28.0686 30.822 28.3652 30.7453 28.6052 30.592C28.8452 30.4387 29.0386 30.2187 29.1852 29.932L29.6052 30.212C29.4386 30.552 29.1986 30.8253 28.8852 31.032C28.5786 31.232 28.1886 31.332 27.7152 31.332Z" fill="white"/>
<path d="M31.6562 24.702C31.5228 24.702 31.4228 24.6687 31.3562 24.602C31.2962 24.5353 31.2662 24.4487 31.2662 24.342V24.242C31.2662 24.1353 31.2962 24.0487 31.3562 23.982C31.4228 23.9153 31.5228 23.882 31.6562 23.882C31.7895 23.882 31.8862 23.9153 31.9462 23.982C32.0128 24.0487 32.0462 24.1353 32.0462 24.242V24.342C32.0462 24.4487 32.0128 24.5353 31.9462 24.602C31.8862 24.6687 31.7895 24.702 31.6562 24.702ZM31.3762 26.092H31.9462V31.212H31.3762V26.092Z" fill="white"/>
<path d="M37.6178 30.392H37.5878C37.4545 30.6787 37.2578 30.9087 36.9978 31.082C36.7445 31.2487 36.4211 31.332 36.0278 31.332C35.3678 31.332 34.8511 31.0987 34.4778 30.632C34.1045 30.1653 33.9178 29.5053 33.9178 28.652C33.9178 27.7987 34.1045 27.1387 34.4778 26.672C34.8511 26.2053 35.3678 25.972 36.0278 25.972C36.4211 25.972 36.7478 26.0587 37.0078 26.232C37.2678 26.3987 37.4611 26.6253 37.5878 26.912H37.6178V23.812H38.1878V31.212H37.6178V30.392ZM36.1578 30.822C36.3578 30.822 36.5445 30.7953 36.7178 30.742C36.8978 30.6887 37.0545 30.612 37.1878 30.512C37.3211 30.4053 37.4245 30.282 37.4978 30.142C37.5778 29.9953 37.6178 29.832 37.6178 29.652V27.622C37.6178 27.4553 37.5778 27.302 37.4978 27.162C37.4245 27.022 37.3211 26.902 37.1878 26.802C37.0545 26.702 36.8978 26.6253 36.7178 26.572C36.5445 26.512 36.3578 26.482 36.1578 26.482C35.6445 26.482 35.2445 26.6453 34.9578 26.972C34.6711 27.2987 34.5278 27.7387 34.5278 28.292V29.012C34.5278 29.5653 34.6711 30.0053 34.9578 30.332C35.2445 30.6587 35.6445 30.822 36.1578 30.822Z" fill="white"/>
<path d="M42.38 31.332C42.04 31.332 41.73 31.272 41.45 31.152C41.1767 31.032 40.94 30.8587 40.74 30.632C40.5467 30.3987 40.3967 30.1153 40.29 29.782C40.19 29.4487 40.14 29.072 40.14 28.652C40.14 28.232 40.19 27.8587 40.29 27.532C40.3967 27.1987 40.5467 26.9187 40.74 26.692C40.94 26.4587 41.1767 26.282 41.45 26.162C41.7233 26.0353 42.03 25.972 42.37 25.972C42.6967 25.972 42.9933 26.0353 43.26 26.162C43.5267 26.282 43.7533 26.452 43.94 26.672C44.1267 26.892 44.27 27.1587 44.37 27.472C44.4767 27.7787 44.53 28.1187 44.53 28.492V28.762H40.74V29.012C40.74 29.2787 40.7767 29.5253 40.85 29.752C40.93 29.972 41.04 30.162 41.18 30.322C41.3267 30.482 41.5033 30.6087 41.71 30.702C41.9167 30.7887 42.15 30.832 42.41 30.832C43.1567 30.832 43.6733 30.4887 43.96 29.802L44.38 30.082C44.22 30.462 43.9667 30.7653 43.62 30.992C43.28 31.2187 42.8667 31.332 42.38 31.332ZM42.37 26.452C42.1233 26.452 41.9 26.4987 41.7 26.592C41.5 26.6787 41.3267 26.802 41.18 26.962C41.04 27.122 40.93 27.3153 40.85 27.542C40.7767 27.762 40.74 28.0053 40.74 28.272V28.322H43.91V28.242C43.91 27.9753 43.8733 27.732 43.8 27.512C43.7267 27.2853 43.62 27.0953 43.48 26.942C43.3467 26.7887 43.1833 26.6687 42.99 26.582C42.8033 26.4953 42.5967 26.452 42.37 26.452Z" fill="white"/>
<path d="M51.903 31.332C51.0096 31.332 50.3096 31.0287 49.803 30.422C49.2963 29.8087 49.043 28.9087 49.043 27.722C49.043 26.5353 49.2963 25.6387 49.803 25.032C50.3096 24.4187 51.0096 24.112 51.903 24.112C52.7896 24.112 53.4863 24.4187 53.993 25.032C54.4996 25.6453 54.753 26.542 54.753 27.722C54.753 28.902 54.4996 29.7987 53.993 30.412C53.4863 31.0253 52.7896 31.332 51.903 31.332ZM51.903 30.792C52.2363 30.792 52.5363 30.7353 52.803 30.622C53.0763 30.502 53.3096 30.3287 53.503 30.102C53.6963 29.8753 53.8463 29.5987 53.953 29.272C54.0596 28.9453 54.113 28.5753 54.113 28.162V27.282C54.113 26.8687 54.0596 26.4987 53.953 26.172C53.8463 25.8453 53.6963 25.572 53.503 25.352C53.3096 25.1253 53.0763 24.952 52.803 24.832C52.5363 24.712 52.2363 24.652 51.903 24.652C51.5696 24.652 51.2663 24.712 50.993 24.832C50.7196 24.952 50.4863 25.1253 50.293 25.352C50.0996 25.572 49.9496 25.8453 49.843 26.172C49.7363 26.4987 49.683 26.8687 49.683 27.282V28.162C49.683 28.5753 49.7363 28.9453 49.843 29.272C49.9496 29.5987 50.0996 29.8753 50.293 30.102C50.4863 30.3287 50.7196 30.502 50.993 30.622C51.2663 30.7353 51.5696 30.792 51.903 30.792Z" fill="white"/>
<path d="M56.8156 31.212V26.092H57.3856V27.012H57.4256C57.5256 26.772 57.6956 26.5587 57.9356 26.372C58.1756 26.1853 58.5156 26.092 58.9556 26.092H59.2956V26.652H58.8456C58.419 26.652 58.069 26.7453 57.7956 26.932C57.5223 27.1187 57.3856 27.3787 57.3856 27.712V31.212H56.8156Z" fill="white"/>
<path d="M60.8898 26.092H61.4598V26.912H61.4898C61.6165 26.6253 61.8098 26.3987 62.0698 26.232C62.3298 26.0587 62.6565 25.972 63.0498 25.972C63.7098 25.972 64.2265 26.2053 64.5998 26.672C64.9732 27.1387 65.1598 27.7987 65.1598 28.652C65.1598 29.5053 64.9732 30.1653 64.5998 30.632C64.2265 31.0987 63.7098 31.332 63.0498 31.332C62.6565 31.332 62.3332 31.2487 62.0798 31.082C61.8265 30.9087 61.6298 30.6787 61.4898 30.392H61.4598V33.212H60.8898V26.092ZM62.9198 30.822C63.4332 30.822 63.8332 30.6587 64.1198 30.332C64.4065 30.0053 64.5498 29.5653 64.5498 29.012V28.292C64.5498 27.7387 64.4065 27.2987 64.1198 26.972C63.8332 26.6453 63.4332 26.482 62.9198 26.482C62.7198 26.482 62.5298 26.512 62.3498 26.572C62.1765 26.6253 62.0232 26.702 61.8898 26.802C61.7565 26.902 61.6498 27.022 61.5698 27.162C61.4965 27.302 61.4598 27.4553 61.4598 27.622V29.652C61.4598 29.832 61.4965 29.9953 61.5698 30.142C61.6498 30.282 61.7565 30.4053 61.8898 30.512C62.0232 30.612 62.1765 30.6887 62.3498 30.742C62.5298 30.7953 62.7198 30.822 62.9198 30.822Z" fill="white"/>
<path d="M67.132 23.812H67.702V26.902H67.732C67.8454 26.6353 68.022 26.4153 68.262 26.242C68.502 26.062 68.8287 25.972 69.242 25.972C69.7887 25.972 70.212 26.142 70.512 26.482C70.8187 26.8153 70.972 27.2953 70.972 27.922V31.212H70.402V28.022C70.402 27.502 70.2887 27.1153 70.062 26.862C69.842 26.6087 69.5187 26.482 69.092 26.482C68.912 26.482 68.7387 26.5053 68.572 26.552C68.4054 26.5987 68.2554 26.6687 68.122 26.762C67.9954 26.8553 67.892 26.9753 67.812 27.122C67.7387 27.262 67.702 27.4253 67.702 27.612V31.212H67.132V23.812Z" fill="white"/>
<path d="M76.7868 31.212C76.5668 31.212 76.4068 31.1553 76.3068 31.042C76.2068 30.9287 76.1501 30.7753 76.1368 30.582V30.402H76.0868C75.9735 30.6887 75.7868 30.9153 75.5268 31.082C75.2668 31.2487 74.9368 31.332 74.5368 31.332C73.9968 31.332 73.5801 31.202 73.2868 30.942C72.9935 30.6753 72.8468 30.302 72.8468 29.822C72.8468 29.3687 73.0068 29.0087 73.3268 28.742C73.6535 28.4753 74.1868 28.342 74.9268 28.342H76.1068V27.742C76.1068 26.8953 75.6701 26.472 74.7968 26.472C74.4568 26.472 74.1735 26.5453 73.9468 26.692C73.7201 26.832 73.5368 27.0353 73.3968 27.302L73.0368 27.002C73.1768 26.702 73.3901 26.4553 73.6768 26.262C73.9701 26.0687 74.3501 25.972 74.8168 25.972C75.4168 25.972 75.8768 26.122 76.1968 26.422C76.5168 26.722 76.6768 27.142 76.6768 27.682V30.712H77.3668V31.212H76.7868ZM74.6168 30.842C74.8235 30.842 75.0168 30.8153 75.1968 30.762C75.3768 30.7087 75.5335 30.6353 75.6668 30.542C75.8068 30.442 75.9135 30.3253 75.9868 30.192C76.0668 30.052 76.1068 29.8953 76.1068 29.722V28.772H74.9068C74.3935 28.772 74.0201 28.8553 73.7868 29.022C73.5601 29.182 73.4468 29.4053 73.4468 29.692V29.932C73.4468 30.232 73.5535 30.4587 73.7668 30.612C73.9801 30.7653 74.2635 30.842 74.6168 30.842Z" fill="white"/>
<path d="M79.0402 31.212V26.092H79.6102V26.902H79.6402C79.7536 26.6353 79.9302 26.4153 80.1702 26.242C80.4102 26.062 80.7369 25.972 81.1502 25.972C81.6969 25.972 82.1202 26.142 82.4202 26.482C82.7269 26.8153 82.8802 27.2953 82.8802 27.922V31.212H82.3102V28.022C82.3102 27.502 82.1969 27.1153 81.9702 26.862C81.7502 26.6087 81.4269 26.482 81.0002 26.482C80.8202 26.482 80.6469 26.5053 80.4802 26.552C80.3136 26.5987 80.1636 26.6687 80.0302 26.762C79.9036 26.8553 79.8002 26.9753 79.7202 27.122C79.6469 27.262 79.6102 27.4253 79.6102 27.612V31.212H79.0402Z" fill="white"/>
<path d="M86.625 31.332C86.1783 31.332 85.795 31.2487 85.475 31.082C85.1617 30.9153 84.8883 30.672 84.655 30.352L85.075 30.022C85.2883 30.302 85.5217 30.5087 85.775 30.642C86.0283 30.7753 86.325 30.842 86.665 30.842C87.0583 30.842 87.3617 30.7587 87.575 30.592C87.7883 30.4253 87.895 30.1853 87.895 29.872C87.895 29.5987 87.8117 29.3853 87.645 29.232C87.485 29.072 87.2183 28.9653 86.845 28.912L86.425 28.842C86.1917 28.8087 85.9783 28.7587 85.785 28.692C85.5917 28.6253 85.425 28.5353 85.285 28.422C85.1517 28.3087 85.045 28.172 84.965 28.012C84.8917 27.8453 84.855 27.6453 84.855 27.412C84.855 27.172 84.8983 26.962 84.985 26.782C85.0783 26.602 85.2017 26.452 85.355 26.332C85.5083 26.212 85.6917 26.122 85.905 26.062C86.1183 26.002 86.3483 25.972 86.595 25.972C87.0217 25.972 87.3717 26.0453 87.645 26.192C87.9183 26.3387 88.1517 26.5287 88.345 26.762L87.965 27.112C87.8317 26.952 87.6517 26.8053 87.425 26.672C87.205 26.532 86.9183 26.462 86.565 26.462C86.1983 26.462 85.9117 26.542 85.705 26.702C85.505 26.862 85.405 27.0887 85.405 27.382C85.405 27.682 85.495 27.8987 85.675 28.032C85.8617 28.1653 86.1383 28.262 86.505 28.322L86.915 28.382C87.435 28.462 87.8183 28.6187 88.065 28.852C88.3183 29.0787 88.445 29.3987 88.445 29.812C88.445 30.292 88.2817 30.6653 87.955 30.932C87.635 31.1987 87.1917 31.332 86.625 31.332Z" fill="white"/>
<path d="M95.2139 31.332C94.6406 31.332 94.1606 31.2253 93.7739 31.012C93.3939 30.792 93.0672 30.502 92.7939 30.142L93.2439 29.772C93.4906 30.0987 93.7672 30.352 94.0739 30.532C94.3872 30.712 94.7739 30.802 95.2339 30.802C95.7739 30.802 96.1872 30.6753 96.4739 30.422C96.7672 30.162 96.9139 29.802 96.9139 29.342C96.9139 28.9153 96.7906 28.602 96.5439 28.402C96.2972 28.202 95.9506 28.0553 95.5039 27.962L94.8839 27.832C94.2172 27.6987 93.7339 27.4753 93.4339 27.162C93.1339 26.8487 92.9839 26.4487 92.9839 25.962C92.9839 25.6553 93.0372 25.3887 93.1439 25.162C93.2506 24.9287 93.4006 24.7353 93.5939 24.582C93.7939 24.4287 94.0306 24.312 94.3039 24.232C94.5839 24.152 94.8906 24.112 95.2239 24.112C95.7439 24.112 96.1839 24.2053 96.5439 24.392C96.9039 24.5787 97.2006 24.842 97.4339 25.182L96.9839 25.512C96.7906 25.232 96.5472 25.0187 96.2539 24.872C95.9672 24.7187 95.6139 24.642 95.1939 24.642C94.6939 24.642 94.2972 24.752 94.0039 24.972C93.7172 25.1853 93.5739 25.5087 93.5739 25.942C93.5739 26.3553 93.7039 26.6587 93.9639 26.852C94.2239 27.0453 94.5706 27.1853 95.0039 27.272L95.6239 27.402C96.3172 27.5553 96.8039 27.792 97.0839 28.112C97.3639 28.432 97.5039 28.832 97.5039 29.312C97.5039 29.952 97.3006 30.4487 96.8939 30.802C96.4872 31.1553 95.9272 31.332 95.2139 31.332Z" fill="white"/>
<path d="M99.4875 26.092H100.058V26.912H100.088C100.214 26.6253 100.408 26.3987 100.668 26.232C100.928 26.0587 101.254 25.972 101.647 25.972C102.308 25.972 102.824 26.2053 103.198 26.672C103.571 27.1387 103.757 27.7987 103.757 28.652C103.757 29.5053 103.571 30.1653 103.198 30.632C102.824 31.0987 102.308 31.332 101.647 31.332C101.254 31.332 100.931 31.2487 100.677 31.082C100.424 30.9087 100.228 30.6787 100.088 30.392H100.058V33.212H99.4875V26.092ZM101.518 30.822C102.031 30.822 102.431 30.6587 102.717 30.332C103.004 30.0053 103.147 29.5653 103.147 29.012V28.292C103.147 27.7387 103.004 27.2987 102.717 26.972C102.431 26.6453 102.031 26.482 101.518 26.482C101.318 26.482 101.128 26.512 100.948 26.572C100.774 26.6253 100.621 26.702 100.488 26.802C100.354 26.902 100.248 27.022 100.168 27.162C100.094 27.302 100.058 27.4553 100.058 27.622V29.652C100.058 29.832 100.094 29.9953 100.168 30.142C100.248 30.282 100.354 30.4053 100.488 30.512C100.621 30.612 100.774 30.6887 100.948 30.742C101.128 30.7953 101.318 30.822 101.518 30.822Z" fill="white"/>
<path d="M107.55 31.332C107.21 31.332 106.903 31.272 106.63 31.152C106.356 31.032 106.123 30.8587 105.93 30.632C105.736 30.3987 105.586 30.1153 105.48 29.782C105.373 29.4487 105.32 29.072 105.32 28.652C105.32 28.232 105.373 27.8587 105.48 27.532C105.586 27.1987 105.736 26.9187 105.93 26.692C106.123 26.4587 106.356 26.282 106.63 26.162C106.903 26.0353 107.21 25.972 107.55 25.972C107.89 25.972 108.196 26.0353 108.47 26.162C108.743 26.282 108.976 26.4587 109.17 26.692C109.363 26.9187 109.513 27.1987 109.62 27.532C109.726 27.8587 109.78 28.232 109.78 28.652C109.78 29.072 109.726 29.4487 109.62 29.782C109.513 30.1153 109.363 30.3987 109.17 30.632C108.976 30.8587 108.743 31.032 108.47 31.152C108.196 31.272 107.89 31.332 107.55 31.332ZM107.55 30.822C108.05 30.822 108.443 30.6653 108.73 30.352C109.023 30.0387 109.17 29.5787 109.17 28.972V28.332C109.17 27.732 109.023 27.2753 108.73 26.962C108.443 26.642 108.05 26.482 107.55 26.482C107.05 26.482 106.653 26.6387 106.36 26.952C106.073 27.2653 105.93 27.7253 105.93 28.332V28.972C105.93 29.572 106.073 30.032 106.36 30.352C106.653 30.6653 107.05 30.822 107.55 30.822Z" fill="white"/>
<path d="M111.728 31.212V26.092H112.298V26.902H112.328C112.441 26.6353 112.618 26.4153 112.858 26.242C113.098 26.062 113.424 25.972 113.838 25.972C114.384 25.972 114.808 26.142 115.108 26.482C115.414 26.8153 115.568 27.2953 115.568 27.922V31.212H114.998V28.022C114.998 27.502 114.884 27.1153 114.658 26.862C114.438 26.6087 114.114 26.482 113.688 26.482C113.508 26.482 113.334 26.5053 113.168 26.552C113.001 26.5987 112.851 26.6687 112.718 26.762C112.591 26.8553 112.488 26.9753 112.408 27.122C112.334 27.262 112.298 27.4253 112.298 27.612V31.212H111.728Z" fill="white"/>
<path d="M119.312 31.332C118.866 31.332 118.482 31.2487 118.162 31.082C117.849 30.9153 117.576 30.672 117.342 30.352L117.762 30.022C117.976 30.302 118.209 30.5087 118.463 30.642C118.716 30.7753 119.013 30.842 119.353 30.842C119.746 30.842 120.049 30.7587 120.262 30.592C120.476 30.4253 120.582 30.1853 120.582 29.872C120.582 29.5987 120.499 29.3853 120.332 29.232C120.172 29.072 119.906 28.9653 119.533 28.912L119.113 28.842C118.879 28.8087 118.666 28.7587 118.473 28.692C118.279 28.6253 118.113 28.5353 117.973 28.422C117.839 28.3087 117.732 28.172 117.652 28.012C117.579 27.8453 117.543 27.6453 117.543 27.412C117.543 27.172 117.586 26.962 117.673 26.782C117.766 26.602 117.889 26.452 118.043 26.332C118.196 26.212 118.379 26.122 118.592 26.062C118.806 26.002 119.036 25.972 119.283 25.972C119.709 25.972 120.059 26.0453 120.332 26.192C120.606 26.3387 120.839 26.5287 121.033 26.762L120.652 27.112C120.519 26.952 120.339 26.8053 120.113 26.672C119.893 26.532 119.606 26.462 119.253 26.462C118.886 26.462 118.599 26.542 118.393 26.702C118.193 26.862 118.092 27.0887 118.092 27.382C118.092 27.682 118.183 27.8987 118.363 28.032C118.549 28.1653 118.826 28.262 119.192 28.322L119.603 28.382C120.122 28.462 120.506 28.6187 120.753 28.852C121.006 29.0787 121.132 29.3987 121.132 29.812C121.132 30.292 120.969 30.6653 120.643 30.932C120.323 31.1987 119.879 31.332 119.312 31.332Z" fill="white"/>
<path d="M124.948 31.332C124.608 31.332 124.301 31.272 124.028 31.152C123.755 31.032 123.521 30.8587 123.328 30.632C123.135 30.3987 122.985 30.1153 122.878 29.782C122.771 29.4487 122.718 29.072 122.718 28.652C122.718 28.232 122.771 27.8587 122.878 27.532C122.985 27.1987 123.135 26.9187 123.328 26.692C123.521 26.4587 123.755 26.282 124.028 26.162C124.301 26.0353 124.608 25.972 124.948 25.972C125.288 25.972 125.595 26.0353 125.868 26.162C126.141 26.282 126.375 26.4587 126.568 26.692C126.761 26.9187 126.911 27.1987 127.018 27.532C127.125 27.8587 127.178 28.232 127.178 28.652C127.178 29.072 127.125 29.4487 127.018 29.782C126.911 30.1153 126.761 30.3987 126.568 30.632C126.375 30.8587 126.141 31.032 125.868 31.152C125.595 31.272 125.288 31.332 124.948 31.332ZM124.948 30.822C125.448 30.822 125.841 30.6653 126.128 30.352C126.421 30.0387 126.568 29.5787 126.568 28.972V28.332C126.568 27.732 126.421 27.2753 126.128 26.962C125.841 26.642 125.448 26.482 124.948 26.482C124.448 26.482 124.051 26.6387 123.758 26.952C123.471 27.2653 123.328 27.7253 123.328 28.332V28.972C123.328 29.572 123.471 30.032 123.758 30.352C124.051 30.6653 124.448 30.822 124.948 30.822Z" fill="white"/>
<path d="M129.126 31.212V26.092H129.696V27.012H129.736C129.836 26.772 130.006 26.5587 130.246 26.372C130.486 26.1853 130.826 26.092 131.266 26.092H131.606V26.652H131.156C130.73 26.652 130.38 26.7453 130.106 26.932C129.833 27.1187 129.696 27.3787 129.696 27.712V31.212H129.126Z" fill="white"/>
<path d="M134.65 31.332C134.204 31.332 133.82 31.2487 133.5 31.082C133.187 30.9153 132.914 30.672 132.68 30.352L133.1 30.022C133.314 30.302 133.547 30.5087 133.8 30.642C134.054 30.7753 134.35 30.842 134.69 30.842C135.084 30.842 135.387 30.7587 135.6 30.592C135.814 30.4253 135.92 30.1853 135.92 29.872C135.92 29.5987 135.837 29.3853 135.67 29.232C135.51 29.072 135.244 28.9653 134.87 28.912L134.45 28.842C134.217 28.8087 134.004 28.7587 133.81 28.692C133.617 28.6253 133.45 28.5353 133.31 28.422C133.177 28.3087 133.07 28.172 132.99 28.012C132.917 27.8453 132.88 27.6453 132.88 27.412C132.88 27.172 132.924 26.962 133.01 26.782C133.104 26.602 133.227 26.452 133.38 26.332C133.534 26.212 133.717 26.122 133.93 26.062C134.144 26.002 134.374 25.972 134.62 25.972C135.047 25.972 135.397 26.0453 135.67 26.192C135.944 26.3387 136.177 26.5287 136.37 26.762L135.99 27.112C135.857 26.952 135.677 26.8053 135.45 26.672C135.23 26.532 134.944 26.462 134.59 26.462C134.224 26.462 133.937 26.542 133.73 26.702C133.53 26.862 133.43 27.0887 133.43 27.382C133.43 27.682 133.52 27.8987 133.7 28.032C133.887 28.1653 134.164 28.262 134.53 28.322L134.94 28.382C135.46 28.462 135.844 28.6187 136.09 28.852C136.344 29.0787 136.47 29.3987 136.47 29.812C136.47 30.292 136.307 30.6653 135.98 30.932C135.66 31.1987 135.217 31.332 134.65 31.332Z" fill="white"/>
<path d="M138.466 23.812H139.036V26.902H139.066C139.179 26.6353 139.356 26.4153 139.596 26.242C139.836 26.062 140.163 25.972 140.576 25.972C141.123 25.972 141.546 26.142 141.846 26.482C142.153 26.8153 142.306 27.2953 142.306 27.922V31.212H141.736V28.022C141.736 27.502 141.623 27.1153 141.396 26.862C141.176 26.6087 140.853 26.482 140.426 26.482C140.246 26.482 140.073 26.5053 139.906 26.552C139.739 26.5987 139.589 26.6687 139.456 26.762C139.329 26.8553 139.226 26.9753 139.146 27.122C139.073 27.262 139.036 27.4253 139.036 27.612V31.212H138.466V23.812Z" fill="white"/>
<path d="M144.881 24.702C144.747 24.702 144.647 24.6687 144.581 24.602C144.521 24.5353 144.491 24.4487 144.491 24.342V24.242C144.491 24.1353 144.521 24.0487 144.581 23.982C144.647 23.9153 144.747 23.882 144.881 23.882C145.014 23.882 145.111 23.9153 145.171 23.982C145.237 24.0487 145.271 24.1353 145.271 24.242V24.342C145.271 24.4487 145.237 24.5353 145.171 24.602C145.111 24.6687 145.014 24.702 144.881 24.702ZM144.601 26.092H145.171V31.212H144.601V26.092Z" fill="white"/>
<path d="M147.532 26.092H148.102V26.912H148.132C148.259 26.6253 148.452 26.3987 148.712 26.232C148.972 26.0587 149.299 25.972 149.692 25.972C150.352 25.972 150.869 26.2053 151.242 26.672C151.616 27.1387 151.802 27.7987 151.802 28.652C151.802 29.5053 151.616 30.1653 151.242 30.632C150.869 31.0987 150.352 31.332 149.692 31.332C149.299 31.332 148.976 31.2487 148.722 31.082C148.469 30.9087 148.272 30.6787 148.132 30.392H148.102V33.212H147.532V26.092ZM149.562 30.822C150.076 30.822 150.476 30.6587 150.762 30.332C151.049 30.0053 151.192 29.5653 151.192 29.012V28.292C151.192 27.7387 151.049 27.2987 150.762 26.972C150.476 26.6453 150.076 26.482 149.562 26.482C149.362 26.482 149.172 26.512 148.992 26.572C148.819 26.6253 148.666 26.702 148.532 26.802C148.399 26.902 148.292 27.022 148.212 27.162C148.139 27.302 148.102 27.4553 148.102 27.622V29.652C148.102 29.832 148.139 29.9953 148.212 30.142C148.292 30.282 148.399 30.4053 148.532 30.512C148.666 30.612 148.819 30.6887 148.992 30.742C149.172 30.7953 149.362 30.822 149.562 30.822Z" fill="white"/>
<path d="M156.698 31.212V24.232H160.688V24.762H157.298V27.402H160.458V27.932H157.298V31.212H156.698Z" fill="white"/>
<path d="M164.222 31.332C163.882 31.332 163.575 31.272 163.302 31.152C163.028 31.032 162.795 30.8587 162.602 30.632C162.408 30.3987 162.258 30.1153 162.152 29.782C162.045 29.4487 161.992 29.072 161.992 28.652C161.992 28.232 162.045 27.8587 162.152 27.532C162.258 27.1987 162.408 26.9187 162.602 26.692C162.795 26.4587 163.028 26.282 163.302 26.162C163.575 26.0353 163.882 25.972 164.222 25.972C164.562 25.972 164.868 26.0353 165.142 26.162C165.415 26.282 165.648 26.4587 165.842 26.692C166.035 26.9187 166.185 27.1987 166.292 27.532C166.398 27.8587 166.452 28.232 166.452 28.652C166.452 29.072 166.398 29.4487 166.292 29.782C166.185 30.1153 166.035 30.3987 165.842 30.632C165.648 30.8587 165.415 31.032 165.142 31.152C164.868 31.272 164.562 31.332 164.222 31.332ZM164.222 30.822C164.722 30.822 165.115 30.6653 165.402 30.352C165.695 30.0387 165.842 29.5787 165.842 28.972V28.332C165.842 27.732 165.695 27.2753 165.402 26.962C165.115 26.642 164.722 26.482 164.222 26.482C163.722 26.482 163.325 26.6387 163.032 26.952C162.745 27.2653 162.602 27.7253 162.602 28.332V28.972C162.602 29.572 162.745 30.032 163.032 30.352C163.325 30.6653 163.722 30.822 164.222 30.822Z" fill="white"/>
<path d="M171.6 30.402H171.56C171.513 30.522 171.45 30.6387 171.37 30.752C171.29 30.8653 171.19 30.9653 171.07 31.052C170.95 31.132 170.806 31.1987 170.64 31.252C170.48 31.3053 170.29 31.332 170.07 31.332C169.523 31.332 169.096 31.1653 168.79 30.832C168.483 30.492 168.33 30.0087 168.33 29.382V26.092H168.9V29.272C168.9 29.7987 169.013 30.1887 169.24 30.442C169.466 30.6953 169.793 30.822 170.22 30.822C170.4 30.822 170.57 30.7987 170.73 30.752C170.896 30.7053 171.043 30.6353 171.17 30.542C171.303 30.4487 171.406 30.332 171.48 30.192C171.56 30.0453 171.6 29.8753 171.6 29.682V26.092H172.17V31.212H171.6V30.402Z" fill="white"/>
<path d="M174.534 31.212V26.092H175.104V26.902H175.134C175.248 26.6353 175.424 26.4153 175.664 26.242C175.904 26.062 176.231 25.972 176.644 25.972C177.191 25.972 177.614 26.142 177.914 26.482C178.221 26.8153 178.374 27.2953 178.374 27.922V31.212H177.804V28.022C177.804 27.502 177.691 27.1153 177.464 26.862C177.244 26.6087 176.921 26.482 176.494 26.482C176.314 26.482 176.141 26.5053 175.974 26.552C175.808 26.5987 175.658 26.6687 175.524 26.762C175.398 26.8553 175.294 26.9753 175.214 27.122C175.141 27.262 175.104 27.4253 175.104 27.612V31.212H174.534Z" fill="white"/>
<path d="M183.979 30.392H183.949C183.816 30.6787 183.619 30.9087 183.359 31.082C183.106 31.2487 182.782 31.332 182.389 31.332C181.729 31.332 181.212 31.0987 180.839 30.632C180.466 30.1653 180.279 29.5053 180.279 28.652C180.279 27.7987 180.466 27.1387 180.839 26.672C181.212 26.2053 181.729 25.972 182.389 25.972C182.782 25.972 183.109 26.0587 183.369 26.232C183.629 26.3987 183.822 26.6253 183.949 26.912H183.979V23.812H184.549V31.212H183.979V30.392ZM182.519 30.822C182.719 30.822 182.906 30.7953 183.079 30.742C183.259 30.6887 183.416 30.612 183.549 30.512C183.682 30.4053 183.786 30.282 183.859 30.142C183.939 29.9953 183.979 29.832 183.979 29.652V27.622C183.979 27.4553 183.939 27.302 183.859 27.162C183.786 27.022 183.682 26.902 183.549 26.802C183.416 26.702 183.259 26.6253 183.079 26.572C182.906 26.512 182.719 26.482 182.519 26.482C182.006 26.482 181.606 26.6453 181.319 26.972C181.032 27.2987 180.889 27.7387 180.889 28.292V29.012C180.889 29.5653 181.032 30.0053 181.319 30.332C181.606 30.6587 182.006 30.822 182.519 30.822Z" fill="white"/>
<path d="M190.431 31.212C190.211 31.212 190.051 31.1553 189.951 31.042C189.851 30.9287 189.795 30.7753 189.781 30.582V30.402H189.731C189.618 30.6887 189.431 30.9153 189.171 31.082C188.911 31.2487 188.581 31.332 188.181 31.332C187.641 31.332 187.225 31.202 186.931 30.942C186.638 30.6753 186.491 30.302 186.491 29.822C186.491 29.3687 186.651 29.0087 186.971 28.742C187.298 28.4753 187.831 28.342 188.571 28.342H189.751V27.742C189.751 26.8953 189.315 26.472 188.441 26.472C188.101 26.472 187.818 26.5453 187.591 26.692C187.365 26.832 187.181 27.0353 187.041 27.302L186.681 27.002C186.821 26.702 187.035 26.4553 187.321 26.262C187.615 26.0687 187.995 25.972 188.461 25.972C189.061 25.972 189.521 26.122 189.841 26.422C190.161 26.722 190.321 27.142 190.321 27.682V30.712H191.011V31.212H190.431ZM188.261 30.842C188.468 30.842 188.661 30.8153 188.841 30.762C189.021 30.7087 189.178 30.6353 189.311 30.542C189.451 30.442 189.558 30.3253 189.631 30.192C189.711 30.052 189.751 29.8953 189.751 29.722V28.772H188.551C188.038 28.772 187.665 28.8553 187.431 29.022C187.205 29.182 187.091 29.4053 187.091 29.692V29.932C187.091 30.232 187.198 30.4587 187.411 30.612C187.625 30.7653 187.908 30.842 188.261 30.842Z" fill="white"/>
<path d="M193.584 31.212C193.378 31.212 193.221 31.1553 193.114 31.042C193.008 30.9287 192.954 30.7753 192.954 30.582V26.592H192.064V26.092H192.644C192.784 26.092 192.878 26.0653 192.924 26.012C192.978 25.952 193.004 25.8487 193.004 25.702V24.662H193.524V26.092H194.684V26.592H193.524V30.712H194.604V31.212H193.584Z" fill="white"/>
<path d="M196.834 24.702C196.701 24.702 196.601 24.6687 196.534 24.602C196.474 24.5353 196.444 24.4487 196.444 24.342V24.242C196.444 24.1353 196.474 24.0487 196.534 23.982C196.601 23.9153 196.701 23.882 196.834 23.882C196.967 23.882 197.064 23.9153 197.124 23.982C197.191 24.0487 197.224 24.1353 197.224 24.242V24.342C197.224 24.4487 197.191 24.5353 197.124 24.602C197.064 24.6687 196.967 24.702 196.834 24.702ZM196.554 26.092H197.124V31.212H196.554V26.092Z" fill="white"/>
<path d="M201.306 31.332C200.966 31.332 200.659 31.272 200.386 31.152C200.112 31.032 199.879 30.8587 199.686 30.632C199.492 30.3987 199.342 30.1153 199.236 29.782C199.129 29.4487 199.076 29.072 199.076 28.652C199.076 28.232 199.129 27.8587 199.236 27.532C199.342 27.1987 199.492 26.9187 199.686 26.692C199.879 26.4587 200.112 26.282 200.386 26.162C200.659 26.0353 200.966 25.972 201.306 25.972C201.646 25.972 201.952 26.0353 202.226 26.162C202.499 26.282 202.732 26.4587 202.926 26.692C203.119 26.9187 203.269 27.1987 203.376 27.532C203.482 27.8587 203.536 28.232 203.536 28.652C203.536 29.072 203.482 29.4487 203.376 29.782C203.269 30.1153 203.119 30.3987 202.926 30.632C202.732 30.8587 202.499 31.032 202.226 31.152C201.952 31.272 201.646 31.332 201.306 31.332ZM201.306 30.822C201.806 30.822 202.199 30.6653 202.486 30.352C202.779 30.0387 202.926 29.5787 202.926 28.972V28.332C202.926 27.732 202.779 27.2753 202.486 26.962C202.199 26.642 201.806 26.482 201.306 26.482C200.806 26.482 200.409 26.6387 200.116 26.952C199.829 27.2653 199.686 27.7253 199.686 28.332V28.972C199.686 29.572 199.829 30.032 200.116 30.352C200.409 30.6653 200.806 30.822 201.306 30.822Z" fill="white"/>
<path d="M205.484 31.212V26.092H206.054V26.902H206.084C206.197 26.6353 206.374 26.4153 206.614 26.242C206.854 26.062 207.18 25.972 207.594 25.972C208.14 25.972 208.564 26.142 208.864 26.482C209.17 26.8153 209.324 27.2953 209.324 27.922V31.212H208.754V28.022C208.754 27.502 208.64 27.1153 208.414 26.862C208.194 26.6087 207.87 26.482 207.444 26.482C207.264 26.482 207.09 26.5053 206.924 26.552C206.757 26.5987 206.607 26.6687 206.474 26.762C206.347 26.8553 206.244 26.9753 206.164 27.122C206.09 27.262 206.054 27.4253 206.054 27.612V31.212H205.484Z" fill="white"/>
<path fill-rule="evenodd" clip-rule="evenodd" d="M230.213 25.8315C223.147 14.8968 234.772 12.2391 237.697 15.884C237.735 15.846 238.457 14.8589 238.495 14.8209C233.822 7.98675 224.553 13.6439 225.579 19.2631C226.984 26.8566 238.153 34.4121 238.229 34.3742C238.305 34.3742 233.252 30.5774 230.213 25.8315Z" fill="#F8F8F8"/>
<path fill-rule="evenodd" clip-rule="evenodd" d="M249.854 11.2142C244.118 8.82221 239.787 13.3783 238.496 14.8211C238.458 14.8211 237.698 15.8842 237.698 15.8842C237.698 15.8842 236.634 18.0103 236.406 19.7948C236.33 20.2884 236.52 21.6932 237.204 22.6044C237.622 23.1739 238.306 23.5156 239.142 23.5916C239.521 23.6295 239.863 23.5536 240.129 23.4017C240.509 23.2119 240.775 22.8322 240.889 22.6424C241.079 22.3007 241.193 21.959 241.269 21.5793C241.383 21.0477 241.383 20.5542 241.383 20.0226C241.307 18.8456 240.661 17.1751 239.407 15.7323C239.483 15.6184 239.597 15.5045 239.673 15.3906C240.775 14.0617 242.409 12.9227 244.726 12.3912C247.841 11.7077 252.096 13.8719 252.286 17.4788C252.666 24.3509 242.751 31.6407 242.826 31.6786C242.902 31.7166 253.425 23.9333 253.995 18.0863C254.071 16.4916 253.387 12.6949 249.854 11.2142ZM239.673 20.0606C239.901 21.921 239.104 22.4146 239.066 22.4905C238.762 22.3766 238.61 22.1108 238.458 21.8451C238.04 21.1237 237.964 20.1745 237.964 19.7948C237.964 18.9595 238.154 18.0103 238.572 17.0612C239.293 18.1242 239.559 19.2253 239.673 20.0606Z" fill="#F8F8F8"/>
<path fill-rule="evenodd" clip-rule="evenodd" d="M226.871 8.40377C226.833 8.40377 226.909 9.12515 227.023 9.50483C227.137 9.84654 227.327 10.1882 227.479 10.416C227.745 10.7957 228.201 11.1374 228.695 11.3273C229.227 11.5171 229.796 11.4791 230.328 11.1754C230.746 10.9096 231.05 10.53 231.24 10.0743C231.506 9.42889 231.544 8.70751 231.506 8.10003C231.506 7.45458 231.354 6.88507 231.05 6.31556C230.784 5.78401 230.404 5.3284 229.872 4.94873C229.227 4.49312 228.619 4.49312 228.125 4.72092C226.947 5.2145 226.833 6.77117 226.871 6.77117C226.909 6.77117 227.517 5.51824 228.733 5.70808C230.024 5.89792 231.506 8.97328 229.416 10.0364C227.783 10.8717 226.947 8.3658 226.871 8.40377Z" fill="#F8F8F8"/>
<path fill-rule="evenodd" clip-rule="evenodd" d="M236.444 8.89835C236.406 8.89835 236.368 9.50583 236.444 9.84753C236.52 10.1513 236.596 10.455 236.71 10.6828C236.862 11.0625 237.204 11.4042 237.622 11.632C238.04 11.8598 238.534 11.9357 238.99 11.7459C239.407 11.594 239.673 11.2903 239.901 10.9486C240.205 10.455 240.319 9.80957 240.395 9.31599C240.433 8.82241 240.395 8.29087 240.243 7.79729C240.091 7.34168 239.825 6.88607 239.445 6.50639C238.952 6.01282 238.458 5.97485 238.002 6.05078C236.938 6.27859 236.634 7.60745 236.672 7.60745C236.71 7.60745 237.394 6.65826 238.382 6.962C239.445 7.30371 240.243 10.0753 238.344 10.6828C236.862 11.1005 236.482 8.89835 236.444 8.89835Z" fill="#F8F8F8"/>
<path fill-rule="evenodd" clip-rule="evenodd" d="M246.283 4.79748C246.245 4.79748 246.093 5.7087 246.131 6.20228C246.169 6.65789 246.283 7.1135 246.435 7.49318C246.625 8.06269 247.119 8.6322 247.689 9.01188C248.296 9.42952 249.018 9.54342 249.74 9.35358C250.348 9.16374 250.842 8.7461 251.222 8.25253C251.753 7.53114 252.019 6.61992 252.171 5.86057C252.285 5.13919 252.323 4.34187 252.133 3.54456C251.981 2.82317 251.639 2.10179 251.108 1.49431C250.424 0.696994 249.702 0.545124 248.98 0.659027C247.385 0.886832 246.701 2.78521 246.777 2.82317C246.815 2.82317 247.955 1.49431 249.436 2.06382C250.994 2.70927 251.867 6.9996 248.904 7.64505C246.625 8.17659 246.359 4.79748 246.283 4.79748Z" fill="#F8F8F8"/>
</svg>
