<svg width="30" height="28" viewBox="0 0 30 28" fill="none" xmlns="http://www.w3.org/2000/svg">
<path d="M2 28C1.74414 28 1.48828 27.9023 1.29297 27.707C0.902344 27.3164 0.902344 26.6836 1.29297 26.293L27.293 0.292969C27.6836 -0.0976562 28.3164 -0.0976562 28.707 0.292969C29.0977 0.683594 29.0977 1.31641 28.707 1.70703L2.70703 27.707C2.51172 27.9023 2.25586 28 2 28Z" fill="#A7A7A7"/>
<path d="M25.627 7.37451L20.7428 12.2589C20.9098 12.8101 21.0015 13.3942 21.0015 14C21.0015 17.3137 18.3152 20 15.0015 20C14.3958 20 13.8118 19.9083 13.2605 19.7413L9.1875 23.8145C10.9933 24.5804 12.9532 25 15.0015 25C21.7341 25 27.5113 20.467 30.0015 14C29.0128 11.4324 27.506 9.16968 25.627 7.37451Z" fill="#A7A7A7"/>
<path d="M10.7574 18.2426C9.67157 17.1569 9 15.6569 9 14C9 10.6863 11.6863 8 15 8C16.6569 8 18.1569 8.67157 19.2427 9.75732L23.4084 5.59149C20.9534 3.94647 18.0765 3 15 3C8.2674 3 2.49023 7.53296 0 14C1.35236 17.512 3.67401 20.4536 6.59167 22.4085L19.2043 9.79572L10.7574 18.2426Z" fill="#A7A7A7"/>
</svg>
